<svg width="28" height="32" fill="none" xmlns="http://www.w3.org/2000/svg"><path d="M15.024.351c-.566-.468-1.482-.468-2.048 0l-9.655 8c-.566.47-.566 1.229 0 1.697.565.47 1.482.47 2.048 0l7.183-5.95V26c0 .663.648 1.2 1.448 1.2.8 0 1.448-.537 1.448-1.2V4.097l7.183 5.952c.566.468 1.483.468 2.048 0 .566-.47.566-1.229 0-1.698l-9.655-8ZM1.448 29.6c-.8 0-1.448.537-1.448 1.2 0 .663.648 1.2 1.448 1.2h25.104c.8 0 1.448-.537 1.448-1.2 0-.663-.648-1.2-1.448-1.2H1.448Z" fill="#EEECEC" fill-opacity=".5"/></svg>